<!--?xml version="1.0" standalone="no"?-->
              <svg id="sw-js-blob-svg" viewBox="0 0 100 100" xmlns="http://www.w3.org/2000/svg" version="1.1">
                    <defs> 
                        <linearGradient id="sw-gradient" x1="0" x2="1" y1="1" y2="0">
                            <stop id="stop1" stop-color="rgba(248, 117, 55, 1)" offset="0%"></stop>
                            <stop id="stop2" stop-color="rgba(251, 168, 31, 1)" offset="100%"></stop>
                        </linearGradient>
                    </defs>
                <path fill="url(#sw-gradient)" d="M8.2,-14.9C10.4,-7.9,11.9,-5.1,15.2,-0.5C18.6,4.1,23.9,10.5,23.2,14.9C22.4,19.4,15.6,21.8,9,23.8C2.4,25.8,-4,27.3,-8.7,25.1C-13.3,22.9,-16.1,16.9,-21.5,10.8C-26.9,4.8,-35,-1.4,-35.8,-8C-36.6,-14.6,-30.3,-21.6,-23.1,-27.6C-16,-33.7,-8,-38.8,-2.5,-35.9C3,-32.9,6,-21.8,8.2,-14.9Z" width="100%" height="100%" transform="translate(50 50)" stroke-width="0" style="transition: 0.3s;"></path>
              </svg>